<mxfile host="Electron" modified="2024-04-14T01:20:07.773Z" agent="Mozilla/5.0 (Windows NT 10.0; Win64; x64) AppleWebKit/537.36 (KHTML, like Gecko) draw.io/24.1.0 Chrome/120.0.6099.109 Electron/28.1.0 Safari/537.36" etag="fUPnEpF_2sHo9UTsDOmS" version="24.1.0" type="device">
  <diagram name="Page-1" id="DizszHDaj-d5g8gEAiyC">
    <mxGraphModel dx="1050" dy="621" grid="1" gridSize="10" guides="1" tooltips="1" connect="1" arrows="1" fold="1" page="1" pageScale="1" pageWidth="827" pageHeight="1169" math="0" shadow="0">
      <root>
        <mxCell id="0" />
        <mxCell id="1" parent="0" />
        <mxCell id="tU0B9avt2nKK_wKhxSNf-1" value="" style="ellipse;html=1;" vertex="1" parent="1">
          <mxGeometry x="383.75" y="70" width="30" height="30" as="geometry" />
        </mxCell>
        <mxCell id="tU0B9avt2nKK_wKhxSNf-2" value="" style="endArrow=open;html=1;rounded=0;align=center;verticalAlign=top;endFill=0;labelBackgroundColor=none;endSize=6;entryX=0.5;entryY=0;entryDx=0;entryDy=0;" edge="1" parent="1" source="tU0B9avt2nKK_wKhxSNf-1" target="tU0B9avt2nKK_wKhxSNf-4">
          <mxGeometry relative="1" as="geometry">
            <mxPoint x="395" y="160" as="targetPoint" />
          </mxGeometry>
        </mxCell>
        <mxCell id="tU0B9avt2nKK_wKhxSNf-3" style="edgeStyle=orthogonalEdgeStyle;rounded=0;orthogonalLoop=1;jettySize=auto;html=1;exitX=0.5;exitY=1;exitDx=0;exitDy=0;entryX=0.5;entryY=0;entryDx=0;entryDy=0;" edge="1" parent="1" source="tU0B9avt2nKK_wKhxSNf-4" target="tU0B9avt2nKK_wKhxSNf-5">
          <mxGeometry relative="1" as="geometry">
            <mxPoint x="395" y="300" as="targetPoint" />
          </mxGeometry>
        </mxCell>
        <mxCell id="tU0B9avt2nKK_wKhxSNf-4" value="Administrator odabire aktivnost koju Å¾eli vidjeti" style="rounded=1;whiteSpace=wrap;html=1;" vertex="1" parent="1">
          <mxGeometry x="331.25" y="170" width="135" height="60" as="geometry" />
        </mxCell>
        <mxCell id="tU0B9avt2nKK_wKhxSNf-5" value="Dohvat podataka o aktivosti iz baze podataka" style="rounded=1;whiteSpace=wrap;html=1;" vertex="1" parent="1">
          <mxGeometry x="327.5" y="300" width="142.5" height="60" as="geometry" />
        </mxCell>
        <mxCell id="tU0B9avt2nKK_wKhxSNf-6" style="edgeStyle=orthogonalEdgeStyle;rounded=0;orthogonalLoop=1;jettySize=auto;html=1;exitX=0.5;exitY=1;exitDx=0;exitDy=0;entryX=0.5;entryY=0;entryDx=0;entryDy=0;" edge="1" parent="1" source="tU0B9avt2nKK_wKhxSNf-5" target="tU0B9avt2nKK_wKhxSNf-7">
          <mxGeometry relative="1" as="geometry">
            <mxPoint x="398.75" y="490" as="sourcePoint" />
          </mxGeometry>
        </mxCell>
        <mxCell id="tU0B9avt2nKK_wKhxSNf-10" style="edgeStyle=orthogonalEdgeStyle;rounded=0;orthogonalLoop=1;jettySize=auto;html=1;exitX=0.5;exitY=1;exitDx=0;exitDy=0;entryX=0.5;entryY=0;entryDx=0;entryDy=0;" edge="1" parent="1" source="tU0B9avt2nKK_wKhxSNf-7" target="tU0B9avt2nKK_wKhxSNf-8">
          <mxGeometry relative="1" as="geometry" />
        </mxCell>
        <mxCell id="tU0B9avt2nKK_wKhxSNf-7" value="Prikaz podataka o aktivnosti" style="rounded=1;whiteSpace=wrap;html=1;" vertex="1" parent="1">
          <mxGeometry x="331.25" y="430" width="135" height="60" as="geometry" />
        </mxCell>
        <mxCell id="tU0B9avt2nKK_wKhxSNf-8" value="" style="ellipse;html=1;shape=endState;fillColor=strokeColor;" vertex="1" parent="1">
          <mxGeometry x="383.75" y="560" width="30" height="30" as="geometry" />
        </mxCell>
      </root>
    </mxGraphModel>
  </diagram>
</mxfile>
